<svg width="21" height="21" viewBox="0 0 21 21" fill="none" xmlns="http://www.w3.org/2000/svg">
<path d="M4.5376 13.7947C6.51025 16.1527 8.88489 18.0093 11.5952 19.323C12.6271 19.8121 14.0071 20.3923 15.5446 20.4917C15.64 20.4959 15.7311 20.5 15.8265 20.5C16.8584 20.5 17.6872 20.1436 18.3627 19.4101C18.3669 19.4059 18.3751 19.3976 18.3793 19.3893C18.6197 19.0993 18.8932 18.8382 19.1791 18.5605C19.3739 18.374 19.5728 18.1792 19.7635 17.9803C20.6462 17.0603 20.6462 15.8916 19.7552 15.0006L17.2645 12.5099C16.8418 12.0707 16.3362 11.8386 15.8057 11.8386C15.2753 11.8386 14.7655 12.0707 14.3304 12.5058L12.8468 13.9894C12.71 13.9107 12.5691 13.8402 12.4365 13.7739C12.2707 13.691 12.1174 13.6123 11.9806 13.5253C10.6296 12.6674 9.40292 11.5485 8.2301 10.1104C7.63748 9.36034 7.23963 8.73042 6.96197 8.08807C7.35153 7.73581 7.71622 7.36697 8.06848 7.00642C8.1928 6.87795 8.32128 6.74948 8.44975 6.62101C8.89732 6.17344 9.13769 5.65541 9.13769 5.12909C9.13769 4.60278 8.90147 4.08475 8.44975 3.63717L7.21477 2.4022C7.06972 2.25715 6.93296 2.11625 6.79206 1.9712C6.51854 1.68939 6.23259 1.3993 5.95078 1.13821C5.52393 0.719644 5.02248 0.5 4.49202 0.5C3.9657 0.5 3.46011 0.719644 3.01668 1.14235L1.46674 2.69229C0.903124 3.25591 0.58402 3.9397 0.517712 4.73125C0.438972 5.72172 0.621318 6.77435 1.09376 8.04662C1.819 10.0151 2.91307 11.8427 4.5376 13.7947ZM1.5289 4.81828C1.57863 4.26709 1.78999 3.80709 2.18783 3.40924L3.72948 1.86759C3.96985 1.63552 4.23508 1.51533 4.49202 1.51533C4.74481 1.51533 5.00176 1.63552 5.23798 1.87588C5.51564 2.13282 5.77673 2.4022 6.05853 2.68815C6.19944 2.8332 6.34448 2.97824 6.48953 3.12743L7.72451 4.36241C7.98145 4.61935 8.11407 4.88044 8.11407 5.13738C8.11407 5.39432 7.98145 5.65541 7.72451 5.91235C7.59604 6.04082 7.46757 6.17344 7.3391 6.30191C6.95368 6.69146 6.59314 7.0603 6.19529 7.41256C6.187 7.42085 6.18286 7.42499 6.17457 7.43328C5.8306 7.77725 5.88448 8.10464 5.96736 8.35329C5.9715 8.36573 5.97565 8.37402 5.97979 8.38645C6.2989 9.15313 6.74233 9.88251 7.43441 10.7528C8.67768 12.2862 9.98725 13.4755 11.4294 14.3914C11.6076 14.5075 11.7983 14.5986 11.9765 14.6898C12.1422 14.7727 12.2956 14.8514 12.4323 14.9385C12.4489 14.9467 12.4613 14.955 12.4779 14.9633C12.6147 15.0338 12.7473 15.0669 12.8799 15.0669C13.2115 15.0669 13.427 14.8556 13.4974 14.7851L15.0473 13.2352C15.2877 12.9948 15.5488 12.8663 15.8057 12.8663C16.1207 12.8663 16.3776 13.0611 16.5393 13.2352L19.0382 15.73C19.5355 16.2273 19.5314 16.7661 19.0258 17.2924C18.8517 17.4789 18.6694 17.6571 18.4746 17.8436C18.1845 18.1254 17.882 18.4155 17.6085 18.7429C17.1319 19.2567 16.5641 19.4971 15.8306 19.4971C15.7601 19.4971 15.6856 19.493 15.6151 19.4888C14.2558 19.4018 12.9918 18.8713 12.0428 18.4196C9.46508 17.1722 7.20234 15.4026 5.32501 13.1564C3.77921 11.2957 2.73901 9.56341 2.05107 7.7068C1.62422 6.56714 1.46259 5.65126 1.5289 4.81828Z" fill="#3B6B9C" stroke="#3B6B9C"/>
</svg>
