<svg width="60" height="60" viewBox="0 0 60 60" fill="none" xmlns="http://www.w3.org/2000/svg">
<path d="M25.3125 14.0625H29.0625C29.3111 14.0625 29.5496 13.9637 29.7254 13.7879C29.9012 13.6121 30 13.3736 30 13.125V7.5C30 7.25136 29.9012 7.0129 29.7254 6.83709C29.5496 6.66127 29.3111 6.5625 29.0625 6.5625H25.3125C25.0639 6.5625 24.8254 6.66127 24.6496 6.83709C24.4738 7.0129 24.375 7.25136 24.375 7.5V13.125C24.375 13.3736 24.4738 13.6121 24.6496 13.7879C24.8254 13.9637 25.0639 14.0625 25.3125 14.0625ZM26.25 8.4375H28.125V12.1875H26.25V8.4375Z" fill="#3B6B9C"/>
<path d="M32.8125 14.0625H36.5625C36.8111 14.0625 37.0496 13.9637 37.2254 13.7879C37.4012 13.6121 37.5 13.3736 37.5 13.125V7.5C37.5 7.25136 37.4012 7.0129 37.2254 6.83709C37.0496 6.66127 36.8111 6.5625 36.5625 6.5625H32.8125C32.5639 6.5625 32.3254 6.66127 32.1496 6.83709C31.9738 7.0129 31.875 7.25136 31.875 7.5V13.125C31.875 13.3736 31.9738 13.6121 32.1496 13.7879C32.3254 13.9637 32.5639 14.0625 32.8125 14.0625ZM33.75 8.4375H35.625V12.1875H33.75V8.4375Z" fill="#3B6B9C"/>
<path d="M40.3125 14.0625H44.0625C44.3111 14.0625 44.5496 13.9637 44.7254 13.7879C44.9012 13.6121 45 13.3736 45 13.125V7.5C45 7.25136 44.9012 7.0129 44.7254 6.83709C44.5496 6.66127 44.3111 6.5625 44.0625 6.5625H40.3125C40.0639 6.5625 39.8254 6.66127 39.6496 6.83709C39.4738 7.0129 39.375 7.25136 39.375 7.5V13.125C39.375 13.3736 39.4738 13.6121 39.6496 13.7879C39.8254 13.9637 40.0639 14.0625 40.3125 14.0625ZM41.25 8.4375H43.125V12.1875H41.25V8.4375Z" fill="#3B6B9C"/>
<path d="M25.3125 23.4375H29.0625C29.3111 23.4375 29.5496 23.3387 29.7254 23.1629C29.9012 22.9871 30 22.7486 30 22.5V16.875C30 16.6264 29.9012 16.3879 29.7254 16.2121C29.5496 16.0363 29.3111 15.9375 29.0625 15.9375H25.3125C25.0639 15.9375 24.8254 16.0363 24.6496 16.2121C24.4738 16.3879 24.375 16.6264 24.375 16.875V22.5C24.375 22.7486 24.4738 22.9871 24.6496 23.1629C24.8254 23.3387 25.0639 23.4375 25.3125 23.4375ZM26.25 17.8125H28.125V21.5625H26.25V17.8125Z" fill="#3B6B9C"/>
<path d="M32.8125 23.4375H36.5625C36.8111 23.4375 37.0496 23.3387 37.2254 23.1629C37.4012 22.9871 37.5 22.7486 37.5 22.5V16.875C37.5 16.6264 37.4012 16.3879 37.2254 16.2121C37.0496 16.0363 36.8111 15.9375 36.5625 15.9375H32.8125C32.5639 15.9375 32.3254 16.0363 32.1496 16.2121C31.9738 16.3879 31.875 16.6264 31.875 16.875V22.5C31.875 22.7486 31.9738 22.9871 32.1496 23.1629C32.3254 23.3387 32.5639 23.4375 32.8125 23.4375ZM33.75 17.8125H35.625V21.5625H33.75V17.8125Z" fill="#3B6B9C"/>
<path d="M40.3125 23.4375H44.0625C44.3111 23.4375 44.5496 23.3387 44.7254 23.1629C44.9012 22.9871 45 22.7486 45 22.5V16.875C45 16.6264 44.9012 16.3879 44.7254 16.2121C44.5496 16.0363 44.3111 15.9375 44.0625 15.9375H40.3125C40.0639 15.9375 39.8254 16.0363 39.6496 16.2121C39.4738 16.3879 39.375 16.6264 39.375 16.875V22.5C39.375 22.7486 39.4738 22.9871 39.6496 23.1629C39.8254 23.3387 40.0639 23.4375 40.3125 23.4375ZM41.25 17.8125H43.125V21.5625H41.25V17.8125Z" fill="#3B6B9C"/>
<path d="M17.8125 14.0625H21.5625C21.8111 14.0625 22.0496 13.9637 22.2254 13.7879C22.4012 13.6121 22.5 13.3736 22.5 13.125V7.5C22.5 7.25136 22.4012 7.0129 22.2254 6.83709C22.0496 6.66127 21.8111 6.5625 21.5625 6.5625H17.8125C17.5639 6.5625 17.3254 6.66127 17.1496 6.83709C16.9738 7.0129 16.875 7.25136 16.875 7.5V13.125C16.875 13.3736 16.9738 13.6121 17.1496 13.7879C17.3254 13.9637 17.5639 14.0625 17.8125 14.0625ZM18.75 8.4375H20.625V12.1875H18.75V8.4375Z" fill="#3B6B9C"/>
<path d="M17.8125 23.4375H21.5625C21.8111 23.4375 22.0496 23.3387 22.2254 23.1629C22.4012 22.9871 22.5 22.7486 22.5 22.5V16.875C22.5 16.6264 22.4012 16.3879 22.2254 16.2121C22.0496 16.0363 21.8111 15.9375 21.5625 15.9375H17.8125C17.5639 15.9375 17.3254 16.0363 17.1496 16.2121C16.9738 16.3879 16.875 16.6264 16.875 16.875V22.5C16.875 22.7486 16.9738 22.9871 17.1496 23.1629C17.3254 23.3387 17.5639 23.4375 17.8125 23.4375ZM18.75 17.8125H20.625V21.5625H18.75V17.8125Z" fill="#3B6B9C"/>
<path d="M25.3125 32.8125H29.0625C29.3111 32.8125 29.5496 32.7137 29.7254 32.5379C29.9012 32.3621 30 32.1236 30 31.875V26.25C30 26.0014 29.9012 25.7629 29.7254 25.5871C29.5496 25.4113 29.3111 25.3125 29.0625 25.3125H25.3125C25.0639 25.3125 24.8254 25.4113 24.6496 25.5871C24.4738 25.7629 24.375 26.0014 24.375 26.25V31.875C24.375 32.1236 24.4738 32.3621 24.6496 32.5379C24.8254 32.7137 25.0639 32.8125 25.3125 32.8125ZM26.25 27.1875H28.125V30.9375H26.25V27.1875Z" fill="#3B6B9C"/>
<path d="M17.8125 32.8125H21.5625C21.8111 32.8125 22.0496 32.7137 22.2254 32.5379C22.4012 32.3621 22.5 32.1236 22.5 31.875V26.25C22.5 26.0014 22.4012 25.7629 22.2254 25.5871C22.0496 25.4113 21.8111 25.3125 21.5625 25.3125H17.8125C17.5639 25.3125 17.3254 25.4113 17.1496 25.5871C16.9738 25.7629 16.875 26.0014 16.875 26.25V31.875C16.875 32.1236 16.9738 32.3621 17.1496 32.5379C17.3254 32.7137 17.5639 32.8125 17.8125 32.8125ZM18.75 27.1875H20.625V30.9375H18.75V27.1875Z" fill="#3B6B9C"/>
<path d="M32.8125 32.8125H36.5625C36.8111 32.8125 37.0496 32.7137 37.2254 32.5379C37.4012 32.3621 37.5 32.1236 37.5 31.875V26.25C37.5 26.0014 37.4012 25.7629 37.2254 25.5871C37.0496 25.4113 36.8111 25.3125 36.5625 25.3125H32.8125C32.5639 25.3125 32.3254 25.4113 32.1496 25.5871C31.9738 25.7629 31.875 26.0014 31.875 26.25V31.875C31.875 32.1236 31.9738 32.3621 32.1496 32.5379C32.3254 32.7137 32.5639 32.8125 32.8125 32.8125ZM33.75 27.1875H35.625V30.9375H33.75V27.1875Z" fill="#3B6B9C"/>
<path d="M40.3125 32.8125H44.0625C44.3111 32.8125 44.5496 32.7137 44.7254 32.5379C44.9012 32.3621 45 32.1236 45 31.875V26.25C45 26.0014 44.9012 25.7629 44.7254 25.5871C44.5496 25.4113 44.3111 25.3125 44.0625 25.3125H40.3125C40.0639 25.3125 39.8254 25.4113 39.6496 25.5871C39.4738 25.7629 39.375 26.0014 39.375 26.25V31.875C39.375 32.1236 39.4738 32.3621 39.6496 32.5379C39.8254 32.7137 40.0639 32.8125 40.3125 32.8125ZM41.25 27.1875H43.125V30.9375H41.25V27.1875Z" fill="#3B6B9C"/>
<path d="M25.3125 42.1875H29.0625C29.3111 42.1875 29.5496 42.0887 29.7254 41.9129C29.9012 41.7371 30 41.4986 30 41.25V35.625C30 35.3764 29.9012 35.1379 29.7254 34.9621C29.5496 34.7863 29.3111 34.6875 29.0625 34.6875H25.3125C25.0639 34.6875 24.8254 34.7863 24.6496 34.9621C24.4738 35.1379 24.375 35.3764 24.375 35.625V41.25C24.375 41.4986 24.4738 41.7371 24.6496 41.9129C24.8254 42.0887 25.0639 42.1875 25.3125 42.1875ZM26.25 36.5625H28.125V40.3125H26.25V36.5625Z" fill="#3B6B9C"/>
<path d="M17.8125 42.1875H21.5625C21.8111 42.1875 22.0496 42.0887 22.2254 41.9129C22.4012 41.7371 22.5 41.4986 22.5 41.25V35.625C22.5 35.3764 22.4012 35.1379 22.2254 34.9621C22.0496 34.7863 21.8111 34.6875 21.5625 34.6875H17.8125C17.5639 34.6875 17.3254 34.7863 17.1496 34.9621C16.9738 35.1379 16.875 35.3764 16.875 35.625V41.25C16.875 41.4986 16.9738 41.7371 17.1496 41.9129C17.3254 42.0887 17.5639 42.1875 17.8125 42.1875ZM18.75 36.5625H20.625V40.3125H18.75V36.5625Z" fill="#3B6B9C"/>
<path d="M32.8125 42.1875H36.5625C36.8111 42.1875 37.0496 42.0887 37.2254 41.9129C37.4012 41.7371 37.5 41.4986 37.5 41.25V35.625C37.5 35.3764 37.4012 35.1379 37.2254 34.9621C37.0496 34.7863 36.8111 34.6875 36.5625 34.6875H32.8125C32.5639 34.6875 32.3254 34.7863 32.1496 34.9621C31.9738 35.1379 31.875 35.3764 31.875 35.625V41.25C31.875 41.4986 31.9738 41.7371 32.1496 41.9129C32.3254 42.0887 32.5639 42.1875 32.8125 42.1875ZM33.75 36.5625H35.625V40.3125H33.75V36.5625Z" fill="#3B6B9C"/>
<path d="M40.3125 42.1875H44.0625C44.3111 42.1875 44.5496 42.0887 44.7254 41.9129C44.9012 41.7371 45 41.4986 45 41.25V35.625C45 35.3764 44.9012 35.1379 44.7254 34.9621C44.5496 34.7863 44.3111 34.6875 44.0625 34.6875H40.3125C40.0639 34.6875 39.8254 34.7863 39.6496 34.9621C39.4738 35.1379 39.375 35.3764 39.375 35.625V41.25C39.375 41.4986 39.4738 41.7371 39.6496 41.9129C39.8254 42.0887 40.0639 42.1875 40.3125 42.1875ZM41.25 36.5625H43.125V40.3125H41.25V36.5625Z" fill="#3B6B9C"/>
<path d="M57.1879 36.5625H48.7504V3.75C48.7504 3.50136 48.6516 3.2629 48.4758 3.08709C48.3 2.91127 48.0615 2.8125 47.8129 2.8125H14.0629C13.8142 2.8125 13.5758 2.91127 13.4 3.08709C13.2241 3.2629 13.1254 3.50136 13.1254 3.75V37.3913C12.3371 36.8842 11.4267 36.599 10.49 36.5656C9.55334 36.5322 8.62497 36.752 7.80262 37.2017C6.98026 37.6514 6.29432 38.3144 5.81697 39.121C5.33962 39.9277 5.08851 40.848 5.09006 41.7853C5.09105 42.3061 5.17167 42.8236 5.32913 43.32C4.1728 43.7345 3.20003 44.544 2.58248 45.6059C1.96493 46.6677 1.7423 47.9136 1.95387 49.1236C2.16544 50.3336 2.79762 51.43 3.73884 52.2193C4.68006 53.0085 5.86983 53.44 7.09819 53.4375C7.88949 53.4327 8.66891 53.2446 9.37538 52.8881V56.25C9.37538 56.4986 9.47415 56.7371 9.64996 56.9129C9.82578 57.0887 10.0642 57.1875 10.3129 57.1875C10.5615 57.1875 10.8 57.0887 10.9758 56.9129C11.1516 56.7371 11.2504 56.4986 11.2504 56.25V52.8881C11.8368 53.1777 12.4733 53.3524 13.1254 53.4028V56.25C13.1254 56.4986 13.2241 56.7371 13.4 56.9129C13.5758 57.0887 13.8142 57.1875 14.0629 57.1875H55.3129C55.5615 57.1875 55.8 57.0887 55.9758 56.9129C56.1516 56.7371 56.2504 56.4986 56.2504 56.25V42.1875H57.1879C57.4365 42.1875 57.675 42.0887 57.8508 41.9129C58.0266 41.7371 58.1254 41.4986 58.1254 41.25V37.5C58.1254 37.2514 58.0266 37.0129 57.8508 36.8371C57.675 36.6613 57.4365 36.5625 57.1879 36.5625ZM10.3129 47.8125C10.0642 47.8125 9.82578 47.9113 9.64996 48.0871C9.47415 48.2629 9.37538 48.5014 9.37538 48.75V50.625C8.76754 51.2224 7.95044 51.5588 7.09819 51.5625C6.24119 51.5658 5.41578 51.2392 4.79304 50.6505C4.1703 50.0617 3.79798 49.2559 3.75326 48.4001C3.70854 47.5442 3.99485 46.704 4.55283 46.0536C5.11082 45.4031 5.8977 44.9923 6.75038 44.9062C6.90674 44.8895 7.05637 44.8337 7.1855 44.7439C7.31463 44.6542 7.41911 44.5334 7.48933 44.3927C7.55954 44.252 7.59323 44.0959 7.5873 43.9387C7.58137 43.7816 7.536 43.6285 7.45538 43.4934C7.14007 42.9793 6.97208 42.3884 6.96975 41.7853C6.96975 40.8974 7.32247 40.0459 7.9503 39.4181C8.57814 38.7902 9.42967 38.4375 10.3176 38.4375C11.2055 38.4375 12.057 38.7902 12.6848 39.4181C13.3127 40.0459 13.6654 40.8974 13.6654 41.7853C13.663 42.3884 13.4951 42.9793 13.1798 43.4934C13.0991 43.6285 13.0538 43.7816 13.0478 43.9387C13.0419 44.0959 13.0756 44.252 13.1458 44.3927C13.216 44.5334 13.3205 44.6542 13.4496 44.7439C13.5788 44.8337 13.7284 44.8895 13.8848 44.9062C14.7379 44.9923 15.5251 45.4034 16.0832 46.0544C16.6413 46.7054 16.9273 47.5462 16.882 48.4024C16.8366 49.2587 16.4634 50.0646 15.8397 50.653C15.216 51.2414 14.3897 51.5671 13.5323 51.5625C12.6784 51.56 11.8594 51.2235 11.2504 50.625V48.75C11.2504 48.5014 11.1516 48.2629 10.9758 48.0871C10.8 47.9113 10.5615 47.8125 10.3129 47.8125ZM35.6254 55.3125H26.2504V45.9375H35.6254V55.3125ZM46.8754 55.3125H37.5004V45C37.5004 44.7514 37.4016 44.5129 37.2258 44.3371C37.05 44.1613 36.8115 44.0625 36.5629 44.0625H25.3129C25.0642 44.0625 24.8258 44.1613 24.65 44.3371C24.4741 44.5129 24.3754 44.7514 24.3754 45V55.3125H15.0004V53.2228C16.0565 52.9147 16.988 52.2801 17.6612 51.4099C18.3343 50.5398 18.7147 49.4788 18.7475 48.3791C18.7804 47.2794 18.4642 46.1976 17.8443 45.2887C17.2243 44.3798 16.3325 43.6907 15.2966 43.32C15.4541 42.8236 15.5347 42.3061 15.5357 41.7853C15.5349 40.9916 15.3517 40.2086 15.0004 39.4969V4.6875H46.8754V55.3125ZM54.3754 55.3125H48.7504V42.1875H54.3754V55.3125ZM56.2504 40.3125H48.7504V38.4375H56.2504V40.3125Z" fill="#3B6B9C"/>
</svg>
