<svg width="60" height="60" viewBox="0 0 60 60" fill="none" xmlns="http://www.w3.org/2000/svg">
<g clip-path="url(#clip0_17_4145)">
<path d="M45 41.25C45.5178 41.25 45.9375 40.8303 45.9375 40.3125C45.9375 39.7947 45.5178 39.375 45 39.375C44.4822 39.375 44.0625 39.7947 44.0625 40.3125C44.0625 40.8303 44.4822 41.25 45 41.25Z" fill="#3B6B9C"/>
<path d="M50.5961 15.645C50.4667 15.1425 49.9567 14.8444 49.4542 14.97L47.5792 15.4519C47.0786 15.5813 46.7767 16.0922 46.9042 16.5928C47.0129 17.0166 47.3936 17.2969 47.8117 17.2969C47.8895 17.2969 47.9673 17.2875 48.0461 17.2678L49.9211 16.7859C50.4217 16.6575 50.7236 16.1466 50.5961 15.645Z" fill="#3B6B9C"/>
<path d="M59.0624 32.8125H55.3124C54.794 32.8125 54.3749 33.2325 54.3749 33.75V46.875C54.3749 47.3916 53.9549 47.8125 53.4374 47.8125H51.5624V45C51.5624 43.9659 50.7215 43.125 49.6874 43.125H48.7228C48.8287 42.9844 48.944 42.8522 49.0349 42.6984C49.6724 41.6203 49.8515 40.3594 49.5402 39.1463C49.2665 38.0822 48.6356 37.2131 47.8209 36.5962C49.8346 35.6662 50.969 33.4069 50.399 31.1822L50.1656 30.2747L51.074 30.0413C53.2565 29.4797 55.0903 28.1034 56.2378 26.1628C57.3853 24.2222 57.7068 21.9525 57.1471 19.77L55.9809 15.2297L58.7052 14.5303C59.2059 14.4009 59.5078 13.89 59.3803 13.3894L58.6809 10.665C56.7496 3.15469 49.0678 -1.38562 41.5603 0.542813L27.0328 4.27406L26.3334 1.55063C26.204 1.04813 25.6921 0.751875 25.1915 0.875625L17.9268 2.74125C17.6859 2.80313 17.4796 2.95781 17.354 3.1725C17.2265 3.38625 17.1909 3.64125 17.2528 3.88313L17.9521 6.60656L0.699316 11.0372C0.198691 11.1666 -0.103184 11.6775 0.0243163 12.1781L0.490254 13.995C0.992754 15.9516 2.47307 17.3972 4.27307 17.9588C4.35463 20.3784 4.76057 23.0803 5.45525 25.7869C6.44713 29.6466 7.92088 33.1509 9.60463 35.6531C11.5753 38.58 13.2628 39.3431 14.4871 39.3431C14.7478 39.3431 14.9887 39.3084 15.2062 39.2531C15.3046 39.2278 15.4049 39.1941 15.5071 39.1556C15.5587 39.1509 15.6093 39.1491 15.6609 39.1359L25.1943 36.6872H25.1962L35.6371 34.0059L35.8696 34.9134C36.4124 37.0266 38.3221 38.4356 40.4118 38.4356C40.5196 38.4356 40.6293 38.4225 40.7371 38.415C40.3068 39.3778 40.1943 40.4419 40.4596 41.4778C40.6181 42.0956 40.9049 42.6441 41.2678 43.1241H40.3124C39.2784 43.1241 38.4374 43.965 38.4374 44.9991V47.8116C38.4374 48.8456 39.2784 49.6866 40.3124 49.6866H41.2499V50.6241C41.2499 53.2088 43.3528 55.3116 45.9374 55.3116H52.4999V59.0616C52.4999 59.5791 52.919 59.9991 53.4374 59.9991H59.0624C59.5809 59.9991 59.9999 59.5791 59.9999 59.0616V54.3741V33.75C59.9999 33.2325 59.5809 32.8125 59.0624 32.8125ZM24.7499 2.925L25.2159 4.74094L19.7681 6.14063L19.3021 4.32469L24.7499 2.925ZM16.5112 33.2325C16.2984 35.5997 15.6196 37.2113 14.7384 37.4372C13.859 37.6669 12.4874 36.5784 11.1599 34.6069C9.59244 32.2772 8.21057 28.9791 7.27213 25.3209C6.64025 22.8609 6.26807 20.4197 6.16775 18.2138C6.55588 18.1978 6.94775 18.1444 7.33869 18.0441L8.0165 17.8697C8.07275 19.5291 8.32307 21.8794 9.08713 24.8541C10.3499 29.7684 12.0271 32.6016 12.9149 33.8531C13.0931 34.1053 13.3799 34.2478 13.679 34.2478C13.7568 34.2478 13.8346 34.2384 13.9124 34.2188C14.2884 34.1222 14.5659 33.8034 14.6099 33.4181C14.7853 31.8947 14.8903 28.6059 13.6274 23.6878C12.9909 21.2119 12.1471 18.9487 11.1881 17.055L13.0471 16.5778C13.9978 18.5325 14.8256 20.8191 15.4434 23.2219C16.3846 26.88 16.7634 30.435 16.5112 33.2325ZM9.93932 18.7481C10.5403 20.0616 11.2209 21.8531 11.8124 24.1547C12.3946 26.4234 12.6703 28.3088 12.7799 29.805C12.1546 28.4409 11.4862 26.6559 10.904 24.3881C10.3162 22.1006 10.0481 20.2078 9.93932 18.7481ZM24.7284 34.8713L17.6821 36.6806C18.0046 35.8556 18.2549 34.7887 18.3796 33.3994C18.6496 30.3947 18.2521 26.6147 17.2612 22.755C16.6481 20.3691 15.8296 18.0938 14.894 16.1034L23.0324 14.0128C23.984 15.9703 24.8146 18.2456 25.4334 20.655C27.5268 28.8122 26.4346 34.4325 24.7284 34.8713ZM36.0787 31.9566L27.6468 34.1222C28.9021 30.9122 28.5646 25.3106 27.2493 20.1891C26.6343 17.7975 25.8159 15.5306 24.8793 13.5394L26.4084 13.1466C28.4109 12.6309 30.4584 13.8431 30.9731 15.8447C31.3462 17.2997 32.2649 18.5231 33.5587 19.2872C34.4381 19.8066 35.4168 20.0728 36.4124 20.0728C36.8812 20.0728 37.3546 20.0138 37.8215 19.8937L44.2968 18.2306C44.7974 18.1012 45.0993 17.5903 44.9718 17.0897C44.8424 16.5881 44.3315 16.2872 43.8299 16.4147L37.3546 18.0778C36.3843 18.3281 35.3765 18.1838 34.5131 17.6737C33.6506 17.1647 33.0393 16.3491 32.7899 15.3787C32.0174 12.3741 28.9434 10.56 25.9415 11.3306L6.87182 16.2281C4.86838 16.7409 2.82182 15.5316 2.30713 13.5291L2.07369 12.6206L19.3256 8.19L26.5912 6.32438C26.5921 6.32438 26.5931 6.32344 26.594 6.32344L42.0271 2.35969C48.5315 0.685313 55.1915 4.62375 56.8631 11.1319L57.3299 12.9488L54.6065 13.6481H54.6056L52.8731 14.0925C52.3715 14.2219 52.0696 14.7328 52.1981 15.2344C52.3284 15.7369 52.8412 16.035 53.3399 15.9094L54.164 15.6975L55.3293 20.2378C56.2303 23.7422 54.1106 27.3263 50.6062 28.2262L48.7921 28.6922C48.7912 28.6922 48.7903 28.6922 48.7893 28.6922C48.7884 28.6922 48.7884 28.6931 48.7874 28.6931L36.0787 31.9566ZM41.1103 36.4716C39.6084 36.855 38.0718 35.9484 37.6865 34.4475L37.454 33.54L48.3506 30.7416L48.584 31.6491C48.9693 33.1519 48.0609 34.6875 46.559 35.0728L41.1103 36.4716ZM47.4206 41.7441C47.039 42.3909 46.4268 42.8494 45.6993 43.0359C44.9737 43.2216 44.2153 43.1156 43.5693 42.7331C42.9224 42.3506 42.4631 41.7394 42.2765 41.0119C42.0899 40.2844 42.1968 39.5278 42.5793 38.8809C42.9609 38.2341 43.5731 37.7756 44.3006 37.5891C44.534 37.5291 44.7703 37.4991 45.0056 37.4991C45.5015 37.4991 45.9928 37.6322 46.4315 37.8909C47.0784 38.2734 47.5378 38.8847 47.7243 39.6122C47.9099 40.3406 47.8031 41.0972 47.4206 41.7441ZM42.1874 47.8125H40.3124V45H44.9953H45.0009H45.0084H49.6874L49.6884 47.8125H42.1874ZM58.1249 58.125H54.3749V55.3125H58.1249V58.125ZM58.1249 53.4375H53.4374H45.9374C44.3868 53.4375 43.1249 52.1756 43.1249 50.625V49.6875H49.6874H53.4374C54.9881 49.6875 56.2499 48.4256 56.2499 46.875V34.6875H58.1249V53.4375Z" fill="#3B6B9C"/>
</g>
<defs>
<clipPath id="clip0_17_4145">
<rect width="60" height="60" fill="white"/>
</clipPath>
</defs>
</svg>
