<svg width="60" height="60" viewBox="0 0 60 60" fill="none" xmlns="http://www.w3.org/2000/svg">
<g clip-path="url(#clip0_17_4122)">
<path d="M59.1227 38.0753H58.8887V28.9472C58.8887 28.4627 58.496 28.0698 58.0113 28.0698H52.9722V21.7347C52.9722 21.2502 52.5795 20.8573 52.0949 20.8573H48.1731L44.8477 16.1212C44.6836 15.8872 44.4156 15.748 44.1297 15.748H39.7839V0.93057C39.7839 0.44604 39.3912 0.0532227 38.9066 0.0532227H24.0544C23.5699 0.0532227 23.177 0.44604 23.177 0.93057V6.28952C23.177 7.42387 24.9317 7.42387 24.9317 6.28952V1.80792H38.0291L38.0013 30.0525H24.9317V10.818C24.9317 9.68368 23.177 9.68368 23.177 10.818V15.1063H21.5391V10.7764C21.5391 10.2919 21.1463 9.89904 20.6618 9.89904H17.1204V4.63075C17.1204 3.4964 15.3657 3.4964 15.3657 4.63075V9.89893H11.8243C11.3398 9.89893 10.9469 10.2917 10.9469 10.7763V15.1062H8.43177C7.94724 15.1062 7.55442 15.499 7.55442 15.9835V27.6969L0.531906 30.7056C0.209276 30.844 0 31.1613 0 31.5122V36.2671C0 37.4014 1.75469 37.4014 1.75469 36.2671V32.0908L10.2781 28.4389V33.7238H7.32023C6.18588 33.7238 6.18588 35.4785 7.32023 35.4785H10.2782V37.4903H7.32023C6.18588 37.4903 6.18588 39.245 7.32023 39.245H10.2782V41.3443H7.71223C7.2277 41.3443 6.83488 41.7371 6.83488 42.2217V58.192H1.75469V40.7074C1.75469 39.573 0 39.573 0 40.7074V59.0694C0 59.554 0.392817 59.9468 0.877347 59.9468H59.1227C59.6073 59.9468 60 59.554 60 59.0694V38.9527C60 38.4682 59.6073 38.0753 59.1227 38.0753ZM47.2352 39.83H52.0949H58.0113H58.2453V52.0897H47.2352V39.83ZM57.134 29.8245V38.0753H52.9722V29.8245H57.134ZM51.2175 28.9472V38.0753H47.2352V35.8974C47.2352 35.4129 46.8425 35.0201 46.3578 35.0201H46.1046V30.9299C46.1046 30.4453 45.7119 30.0525 45.2272 30.0525H39.7839V22.6122H47.7171H51.2175V28.9472ZM43.6737 17.5027L46.0292 20.8575H39.7839V17.5027H43.6737ZM44.3499 31.8072V35.0201H20.5464V31.8072H44.3499ZM12.7016 11.6537H19.7844V15.1063H12.7016V11.6537ZM12.0328 27.1086C12.0328 26.5275 11.4029 26.0481 10.8098 26.3022L9.309 26.9452V16.861H23.177V30.0525H19.6691C19.1845 30.0525 18.7917 30.4453 18.7917 30.9299V35.0201H17.9903C17.5058 35.0201 17.1129 35.4129 17.1129 35.8974V41.3443H12.0328V27.1086ZM8.58958 58.1921V43.0991H17.1129V58.1921H8.58958ZM24.1765 58.1921V41.6005H25.5413V58.1921H24.1765ZM31.4917 58.1921V41.6005H32.8565V58.1921H31.4917ZM38.8069 58.1921V41.6005H40.1717V58.1921H38.8069ZM41.9264 58.1921V40.7232C41.9264 40.2386 41.5337 39.8458 41.0491 39.8458H37.9296C37.4449 39.8458 37.0522 40.2386 37.0522 40.7232V58.1921H34.6112V40.7232C34.6112 40.2386 34.2185 39.8458 33.7339 39.8458H30.6144C30.1298 39.8458 29.737 40.2386 29.737 40.7232V58.1921H27.2959V40.7232C27.2959 40.2386 26.9031 39.8458 26.4186 39.8458H23.2991C22.8145 39.8458 22.4217 40.2386 22.4217 40.7232V58.1921H18.8676V36.7748H45.4805V54.8386C45.4805 55.973 47.2352 55.973 47.2352 54.8386V53.8443H58.2453V58.1921H41.9264Z" fill="#3B6B9C"/>
<path d="M11.1557 49.8884C11.6402 49.8884 12.033 49.4956 12.033 49.0111V47.079C12.033 46.5945 11.6402 46.2017 11.1557 46.2017C10.6711 46.2017 10.2783 46.5945 10.2783 47.079V49.0111C10.2783 49.4956 10.6711 49.8884 11.1557 49.8884Z" fill="#3B6B9C"/>
<path d="M14.5531 49.8884C15.0377 49.8884 15.4305 49.4956 15.4305 49.0111V47.079C15.4305 46.5945 15.0377 46.2017 14.5531 46.2017C14.0686 46.2017 13.6758 46.5945 13.6758 47.079V49.0111C13.6758 49.4956 14.0686 49.8884 14.5531 49.8884Z" fill="#3B6B9C"/>
<path d="M12.033 54.413V52.481C12.033 51.9965 11.6402 51.6037 11.1557 51.6037C10.6711 51.6037 10.2783 51.9965 10.2783 52.481V54.413C10.2783 54.8976 10.6711 55.2904 11.1557 55.2904C11.6402 55.2904 12.033 54.8976 12.033 54.413Z" fill="#3B6B9C"/>
<path d="M14.5531 55.2904C15.0377 55.2904 15.4305 54.8976 15.4305 54.413V52.481C15.4305 51.9965 15.0377 51.6037 14.5531 51.6037C14.0686 51.6037 13.6758 51.9965 13.6758 52.481V54.413C13.6758 54.8976 14.0686 55.2904 14.5531 55.2904Z" fill="#3B6B9C"/>
<path d="M43.0766 25.3736C42.5919 25.3736 42.1992 25.7664 42.1992 26.2509V28.183C42.1992 28.6675 42.5919 29.0603 43.0766 29.0603C43.5612 29.0603 43.9539 28.6675 43.9539 28.183V26.2509C43.9539 25.7664 43.5612 25.3736 43.0766 25.3736Z" fill="#3B6B9C"/>
<path d="M47.0195 26.2509V28.183C47.0195 28.6675 47.4122 29.0603 47.8969 29.0603C48.3815 29.0603 48.7742 28.6675 48.7742 28.183V26.2509C48.7742 25.7664 48.3815 25.3736 47.8969 25.3736C47.4122 25.3736 47.0195 25.7664 47.0195 26.2509Z" fill="#3B6B9C"/>
<path d="M47.8969 30.7756C47.4122 30.7756 47.0195 31.1684 47.0195 31.6529V33.585C47.0195 34.0695 47.4122 34.4623 47.8969 34.4623C48.3815 34.4623 48.7742 34.0695 48.7742 33.585V31.6529C48.7742 31.1684 48.3815 30.7756 47.8969 30.7756Z" fill="#3B6B9C"/>
<path d="M28.3909 6.77955H34.5696C35.704 6.77955 35.704 5.02486 34.5696 5.02486H28.3909C27.2564 5.02486 27.2564 6.77955 28.3909 6.77955Z" fill="#3B6B9C"/>
<path d="M28.3909 11.6537H34.5696C35.704 11.6537 35.704 9.89905 34.5696 9.89905H28.3909C27.2564 9.89905 27.2564 11.6537 28.3909 11.6537Z" fill="#3B6B9C"/>
<path d="M28.3909 16.5279H34.5696C35.704 16.5279 35.704 14.7732 34.5696 14.7732H28.3909C27.2564 14.7732 27.2564 16.5279 28.3909 16.5279Z" fill="#3B6B9C"/>
<path d="M28.3909 21.402H34.5696C35.704 21.402 35.704 19.6473 34.5696 19.6473H28.3909C27.2564 19.6473 27.2564 21.402 28.3909 21.402Z" fill="#3B6B9C"/>
<path d="M28.3909 26.2762H34.5696C35.704 26.2762 35.704 24.5215 34.5696 24.5215H28.3909C27.2564 24.5215 27.2564 26.2762 28.3909 26.2762Z" fill="#3B6B9C"/>
<path d="M55.3921 43.1993H50.089C48.9547 43.1993 48.9547 44.954 50.089 44.954H55.3921C56.5264 44.954 56.5264 43.1993 55.3921 43.1993Z" fill="#3B6B9C"/>
<path d="M55.3921 47.1354H50.089C48.9547 47.1354 48.9547 48.8901 50.089 48.8901H55.3921C56.5264 48.8901 56.5264 47.1354 55.3921 47.1354Z" fill="#3B6B9C"/>
<path d="M4.27916 33.7238C3.15007 33.7238 3.1482 35.4785 4.27916 35.4785C5.40824 35.4785 5.41012 33.7238 4.27916 33.7238Z" fill="#3B6B9C"/>
<path d="M4.27916 39.2451C5.40824 39.2451 5.41012 37.4904 4.27916 37.4904C3.15007 37.4904 3.1482 39.2451 4.27916 39.2451Z" fill="#3B6B9C"/>
<path d="M4.27916 43.0116C5.40824 43.0116 5.41012 41.2569 4.27916 41.2569C3.15007 41.2569 3.1482 43.0116 4.27916 43.0116Z" fill="#3B6B9C"/>
<path d="M4.27916 46.7783C5.40824 46.7783 5.41012 45.0236 4.27916 45.0236C3.15007 45.0236 3.1482 46.7783 4.27916 46.7783Z" fill="#3B6B9C"/>
<path d="M4.27916 50.5448C5.40824 50.5448 5.41012 48.7901 4.27916 48.7901C3.15007 48.7901 3.1482 50.5448 4.27916 50.5448Z" fill="#3B6B9C"/>
<path d="M4.27916 54.3114C5.40824 54.3114 5.41012 52.5567 4.27916 52.5567C3.15007 52.5567 3.1482 54.3114 4.27916 54.3114Z" fill="#3B6B9C"/>
<path d="M21.3666 24.5403V20.1346C21.3666 19.6501 20.9737 19.2573 20.4892 19.2573H11.9965C11.512 19.2573 11.1191 19.6501 11.1191 20.1346V24.5403C11.1191 25.0249 11.512 25.4177 11.9965 25.4177H20.4892C20.9737 25.4177 21.3666 25.0249 21.3666 24.5403ZM19.6119 23.663H12.8738V21.012H19.6119V23.663Z" fill="#3B6B9C"/>
</g>
<defs>
<clipPath id="clip0_17_4122">
<rect width="60" height="60" fill="white"/>
</clipPath>
</defs>
</svg>
