<svg width="60" height="60" viewBox="0 0 60 60" fill="none" xmlns="http://www.w3.org/2000/svg">
<path d="M59.7228 47.7988L46.7853 34.8613C46.8494 34.811 46.9168 34.7649 46.9869 34.7235L50.435 32.8888C51.3168 32.4252 51.9826 31.6354 52.2903 30.6879C52.598 29.7404 52.5233 28.7101 52.0822 27.8169L50.3647 24.3041C50.2329 24.0363 50.1643 23.7419 50.1643 23.4435C50.1643 23.145 50.2329 22.8506 50.3647 22.5828L52.0822 19.07C52.5233 18.1768 52.598 17.1465 52.2903 16.199C51.9826 15.2515 51.3168 14.4617 50.435 13.9981L46.9831 12.1653C46.7192 12.0263 46.4908 11.8284 46.3156 11.587C46.1403 11.3456 46.0229 11.0672 45.9725 10.7731L45.2966 6.9219C45.1284 5.94022 44.5834 5.06306 43.7778 4.47743C42.9722 3.89179 41.9697 3.644 40.9841 3.78689L37.1122 4.33533C36.8169 4.37645 36.5162 4.34997 36.2326 4.25789C35.949 4.1658 35.6901 4.01053 35.4753 3.80377L32.6628 1.08502C31.9496 0.389371 30.9928 0 29.9966 0C29.0003 0 28.0435 0.389371 27.3303 1.08502L24.5178 3.80377C24.303 4.01053 24.0441 4.1658 23.7605 4.25789C23.477 4.34997 23.1762 4.37645 22.8809 4.33533L19.0081 3.78689C18.0225 3.6445 17.0203 3.89248 16.2148 4.47803C15.4093 5.06358 14.8642 5.94044 14.6956 6.9219L14.0197 10.7731C13.9693 11.0673 13.8518 11.3459 13.6764 11.5873C13.501 11.8287 13.2723 12.0265 13.0081 12.1653L9.56001 13.9981C8.67822 14.4617 8.01247 15.2515 7.70474 16.199C7.39702 17.1465 7.47169 18.1768 7.91283 19.07L9.63032 22.5828C9.76217 22.8506 9.83073 23.145 9.83073 23.4435C9.83073 23.7419 9.76217 24.0363 9.63032 24.3041L7.90908 27.8169C7.46794 28.7101 7.39327 29.7404 7.70099 30.6879C8.00872 31.6354 8.67447 32.4252 9.55626 32.8888L13.0119 34.7216C13.0816 34.7633 13.1486 34.8093 13.2125 34.8594L0.275013 47.7969C0.156556 47.9152 0.0719402 48.0631 0.0299568 48.2251C-0.0120266 48.3872 -0.00984536 48.5576 0.0362738 48.7185C0.0823929 48.8794 0.170767 49.0251 0.292215 49.1403C0.413662 49.2556 0.563751 49.3362 0.726888 49.3738L8.77345 51.231L10.6306 59.2775C10.6682 59.4407 10.7489 59.5908 10.8641 59.7122C10.9793 59.8336 11.125 59.922 11.2859 59.9681C11.4469 60.0143 11.6172 60.0164 11.7793 59.9745C11.9413 59.9325 12.0892 59.8479 12.2075 59.7294L26.7228 45.2132L27.3313 45.8028C28.0445 46.4983 29.0013 46.8875 29.9975 46.8875C30.9937 46.8875 31.9505 46.4983 32.6638 45.8028L33.2722 45.2132L47.7903 59.7313C47.9086 59.8497 48.0565 59.9344 48.2186 59.9763C48.3806 60.0183 48.551 60.0161 48.7119 59.97C48.8729 59.9239 49.0185 59.8355 49.1337 59.7141C49.249 59.5926 49.3296 59.4425 49.3672 59.2794L51.2244 51.2328L59.2709 49.3757C59.4341 49.338 59.5842 49.2574 59.7056 49.1422C59.8271 49.027 59.9154 48.8813 59.9616 48.7204C60.0077 48.5594 60.0099 48.3891 59.9679 48.227C59.9259 48.0649 59.8413 47.9171 59.7228 47.7988ZM12.0744 57.2094L10.4666 50.24C10.4271 50.0687 10.3402 49.9119 10.2159 49.7876C10.0916 49.6632 9.93479 49.5764 9.76345 49.5369L2.79408 47.9291L14.1106 36.6125L14.6984 39.965C14.8675 40.9463 15.4127 41.8228 16.2181 42.4083C17.0234 42.9938 18.0254 43.2419 19.0109 43.1L22.8828 42.5516C23.1781 42.5109 23.4787 42.5376 23.7622 42.6296C24.0457 42.7217 24.3047 42.8767 24.5197 43.0832L25.3738 43.9091L12.0744 57.2094ZM28.6353 44.4547L27.3744 43.236L25.8238 41.736C25.1123 41.0435 24.1587 40.656 23.1659 40.656C22.9837 40.6563 22.8017 40.6691 22.6213 40.6944L18.7475 41.2428C18.2436 41.3169 17.7307 41.1907 17.3188 40.8912C16.9068 40.5917 16.6285 40.1428 16.5434 39.6407L15.8675 35.7894C15.7846 35.3521 15.626 34.9327 15.3988 34.55C15.3776 34.5044 15.3528 34.4605 15.3247 34.4188C14.9747 33.8493 14.4805 33.3823 13.8922 33.065L10.4375 31.2322C9.98654 30.9958 9.64586 30.5925 9.48821 30.1083C9.33057 29.6242 9.36844 29.0976 9.59376 28.641L11.3113 25.131C11.5689 24.6067 11.7029 24.0304 11.7029 23.4463C11.7029 22.8622 11.5689 22.2858 11.3113 21.7616L9.59376 18.2488C9.36844 17.7922 9.33057 17.2656 9.48821 16.7814C9.64586 16.2973 9.98654 15.8939 10.4375 15.6575L13.8913 13.8247C14.4081 13.5528 14.8555 13.1657 15.1988 12.6933C15.5421 12.2209 15.7722 11.6759 15.8713 11.1003L16.5472 7.24908C16.6307 6.7467 16.908 6.29712 17.3194 5.997C17.7309 5.69687 18.2436 5.57016 18.7475 5.64408L22.6203 6.19252C23.1982 6.27549 23.7875 6.22474 24.3427 6.04416C24.8979 5.86359 25.4043 5.55801 25.8228 5.15096L28.6353 2.43221C28.9996 2.0766 29.4885 1.87754 29.9975 1.87754C30.5066 1.87754 30.9954 2.0766 31.3597 2.43221L34.1722 5.15096C34.5905 5.5581 35.0967 5.86381 35.6517 6.04455C36.2068 6.22529 36.7959 6.27623 37.3738 6.19346L41.2475 5.64408C41.7515 5.56977 42.2644 5.6959 42.6765 5.99542C43.0885 6.29494 43.3668 6.74399 43.4516 7.24627L44.1275 11.0975C44.2266 11.6729 44.4566 12.2178 44.7997 12.6902C45.1429 13.1626 45.59 13.5498 46.1066 13.8219L49.5613 15.6547C50.0122 15.8911 50.3529 16.2944 50.5106 16.7786C50.6682 17.2628 50.6303 17.7894 50.405 18.246L48.6838 21.756C48.4261 22.2802 48.2921 22.8565 48.2921 23.4406C48.2921 24.0248 48.4261 24.6011 48.6838 25.1253L50.4013 28.6381C50.6266 29.0948 50.6645 29.6214 50.5068 30.1055C50.3492 30.5897 50.0085 30.993 49.5575 31.2294L46.1038 33.0622C45.5869 33.3341 45.1395 33.7212 44.7962 34.1936C44.4529 34.666 44.2228 35.2111 44.1238 35.7866L43.4478 39.6378C43.3632 40.1397 43.0857 40.5885 42.6745 40.8884C42.2634 41.1883 41.7512 41.3155 41.2475 41.2428L37.3728 40.6935C36.7949 40.6106 36.2057 40.6614 35.6505 40.8419C35.0953 41.0225 34.5889 41.328 34.1703 41.735L31.3578 44.4538C30.9938 44.8089 30.5054 45.0078 29.9968 45.008C29.4882 45.0082 28.9996 44.8096 28.6353 44.4547ZM50.2316 49.5369C50.0602 49.5764 49.9034 49.6632 49.7791 49.7876C49.6548 49.9119 49.5679 50.0687 49.5284 50.24L47.9206 57.2094L34.6203 43.9091L35.4734 43.0832C35.6886 42.877 35.9476 42.7221 36.231 42.63C36.5145 42.538 36.8151 42.5112 37.1103 42.5516L40.9831 43.1C41.9687 43.2422 42.9708 42.9941 43.7762 42.4086C44.5817 41.8231 45.1268 40.9464 45.2956 39.965L45.8834 36.6125L57.2009 47.9291L50.2316 49.5369Z" fill="#3B6B9C"/>
<path d="M44.1221 24.0681C44.1226 20.7011 42.9143 17.4459 40.7171 14.8946C40.6401 14.7919 40.5429 14.706 40.4314 14.6424C40.3199 14.5787 40.1965 14.5387 40.0689 14.5247C39.9413 14.5107 39.8122 14.523 39.6895 14.561C39.5669 14.5989 39.4533 14.6617 39.3559 14.7453C39.2585 14.8289 39.1793 14.9317 39.1233 15.0472C39.0672 15.1627 39.0355 15.2885 39.03 15.4167C39.0245 15.545 39.0455 15.673 39.0915 15.7928C39.1376 15.9127 39.2078 16.0218 39.2977 16.1134C41.3095 18.4535 42.3574 21.4704 42.2296 24.5537C42.1017 27.6371 40.8076 30.5568 38.6089 32.7223C36.4103 34.8878 33.4713 36.1375 30.3863 36.2185C27.3014 36.2996 24.3008 35.206 21.9915 33.1589C19.6822 31.1119 18.2365 28.2642 17.9469 25.1918C17.6572 22.1194 18.5453 19.0517 20.4314 16.6091C22.3175 14.1666 25.0609 12.5315 28.1066 12.0347C31.1524 11.5378 34.2731 12.2163 36.8377 13.9328C36.9398 14.0057 37.0554 14.0573 37.1778 14.0847C37.3002 14.1121 37.4268 14.1147 37.5502 14.0923C37.6736 14.0699 37.7913 14.0229 37.8962 13.9542C38.0011 13.8855 38.0912 13.7964 38.1611 13.6923C38.231 13.5882 38.2792 13.4711 38.3031 13.3479C38.3269 13.2248 38.3257 13.0981 38.2997 12.9754C38.2737 12.8527 38.2233 12.7365 38.1516 12.6336C38.0799 12.5308 37.9882 12.4433 37.8821 12.3765C35.2766 10.6325 32.1631 9.80911 29.0361 10.0373C25.9091 10.2655 22.948 11.5322 20.6234 13.636C18.2987 15.7399 16.7438 18.5603 16.2057 21.649C15.6676 24.7378 16.1772 27.9179 17.6535 30.6839C19.1298 33.4499 21.488 35.6432 24.3537 36.9154C27.2193 38.1876 30.4279 38.4656 33.4696 37.7053C36.5113 36.945 39.2117 35.19 41.1418 32.7192C43.0719 30.2484 44.1208 27.2034 44.1221 24.0681Z" fill="#3B6B9C"/>
<path d="M35.4766 19.3143L28.1716 27.0075L24.6728 23.0212C24.5942 22.9207 24.4958 22.8374 24.3838 22.7762C24.2719 22.7151 24.1486 22.6774 24.0215 22.6656C23.8945 22.6538 23.7664 22.668 23.645 22.7074C23.5236 22.7468 23.4116 22.8106 23.3158 22.8948C23.2199 22.979 23.1423 23.0819 23.0876 23.1972C23.0329 23.3125 23.0023 23.4377 22.9977 23.5652C22.9931 23.6927 23.0145 23.8198 23.0608 23.9388C23.107 24.0577 23.177 24.1659 23.2666 24.2568L27.4375 29.0146C27.5234 29.1127 27.6288 29.1918 27.7469 29.2468C27.8651 29.3019 27.9934 29.3317 28.1237 29.3343H28.1425C28.2697 29.3342 28.3956 29.3083 28.5124 29.258C28.6293 29.2077 28.7347 29.1342 28.8222 29.0418L36.8331 20.6043C36.9225 20.516 36.9932 20.4106 37.041 20.2945C37.0889 20.1783 37.1129 20.0537 37.1116 19.928C37.1103 19.8024 37.0838 19.6783 37.0336 19.5631C36.9834 19.4479 36.9106 19.344 36.8195 19.2575C36.7283 19.171 36.6207 19.1037 36.5031 19.0596C36.3854 19.0155 36.2601 18.9955 36.1346 19.0008C36.009 19.0061 35.8858 19.0366 35.7723 19.0905C35.6588 19.1443 35.5573 19.2205 35.4737 19.3143H35.4766Z" fill="#3B6B9C"/>
</svg>
