<svg width="60" height="60" viewBox="0 0 60 60" fill="none" xmlns="http://www.w3.org/2000/svg">
<g clip-path="url(#clip0_17_4172)">
<path d="M57.1875 57.1875V1.875C57.1875 1.62636 57.0887 1.3879 56.9129 1.21209C56.7371 1.03627 56.4986 0.9375 56.25 0.9375H26.25C26.0014 0.9375 25.7629 1.03627 25.5871 1.21209C25.4113 1.3879 25.3125 1.62636 25.3125 1.875V51.5625H23.3278L23.43 50.7412C23.4465 50.6094 23.4347 50.4755 23.3955 50.3485C23.3563 50.2215 23.2906 50.1043 23.2026 50.0046C23.1147 49.905 23.0066 49.8252 22.8854 49.7705C22.7643 49.7158 22.6329 49.6875 22.5 49.6875H19.6875V47.7188C22.3434 47.1947 24.375 44.4994 24.375 41.25C24.375 37.6322 21.8522 34.6875 18.75 34.6875C15.6478 34.6875 13.125 37.6322 13.125 41.25C13.125 44.4947 15.1566 47.19 17.8125 47.7188V49.6875H15C14.8671 49.6875 14.7357 49.7158 14.6146 49.7705C14.4934 49.8252 14.3853 49.905 14.2974 50.0046C14.2094 50.1043 14.1437 50.2215 14.1045 50.3485C14.0653 50.4755 14.0535 50.6094 14.07 50.7412L14.1722 51.5625H11.1403L11.2425 50.7412C11.259 50.6094 11.2472 50.4755 11.208 50.3485C11.1688 50.2215 11.1031 50.1043 11.0151 50.0046C10.9272 49.905 10.8191 49.8252 10.6979 49.7705C10.5768 49.7158 10.4454 49.6875 10.3125 49.6875H7.5V47.7188C10.1559 47.1947 12.1875 44.4994 12.1875 41.25C12.1875 37.6322 9.66469 34.6875 6.5625 34.6875C3.46031 34.6875 0.9375 37.6322 0.9375 41.25C0.9375 44.4947 2.96906 47.19 5.625 47.7188V49.6875H2.8125C2.67959 49.6875 2.54821 49.7158 2.42708 49.7705C2.30594 49.8252 2.19781 49.905 2.10986 50.0046C2.02192 50.1043 1.95617 50.2215 1.91697 50.3485C1.87777 50.4755 1.86602 50.6094 1.8825 50.7412L1.98469 51.5625H0.9375V53.4375H2.21906L2.68781 57.1875H0.9375V59.0625H59.0625V57.1875H57.1875ZM15 41.25C15 38.6653 16.6819 36.5625 18.75 36.5625C20.8181 36.5625 22.5 38.6653 22.5 41.25C22.5559 42.2018 22.3155 43.1475 21.8118 43.9571C21.3082 44.7666 20.566 45.4002 19.6875 45.7706V40.3125H17.8125V45.7706C16.934 45.4002 16.1918 44.7666 15.6882 43.9571C15.1845 43.1475 14.9441 42.2018 15 41.25ZM2.8125 41.25C2.8125 38.6653 4.49437 36.5625 6.5625 36.5625C8.63063 36.5625 10.3125 38.6653 10.3125 41.25C10.3684 42.2018 10.128 43.1475 9.62434 43.9571C9.12068 44.7666 8.37853 45.4002 7.5 45.7706V40.3125H5.625V45.7706C4.74647 45.4002 4.00432 44.7666 3.50066 43.9571C2.997 43.1475 2.75659 42.2018 2.8125 41.25ZM55.3125 2.8125V57.1875H27.1875V2.8125H55.3125ZM25.3125 53.4375V57.1875H22.6247L23.0934 53.4375H25.3125ZM21.4378 51.5625L20.7347 57.1875H16.7653L16.0622 51.5625H21.4378ZM14.4066 53.4375L14.8753 57.1875H10.4372L10.9059 53.4375H14.4066ZM3.87469 51.5625H9.25031L8.54719 57.1875H4.57781L3.87469 51.5625Z" fill="#3B6B9C"/>
<path d="M30 55.3125H52.5C52.7486 55.3125 52.9871 55.2137 53.1629 55.0379C53.3387 54.8621 53.4375 54.6236 53.4375 54.375V5.625C53.4375 5.37636 53.3387 5.1379 53.1629 4.96209C52.9871 4.78627 52.7486 4.6875 52.5 4.6875H30C29.7514 4.6875 29.5129 4.78627 29.3371 4.96209C29.1613 5.1379 29.0625 5.37636 29.0625 5.625V54.375C29.0625 54.6236 29.1613 54.8621 29.3371 55.0379C29.5129 55.2137 29.7514 55.3125 30 55.3125ZM51.5625 6.5625V53.4375H30.9375V33.75H33.75C33.9986 33.75 34.2371 33.6512 34.4129 33.4754C34.5887 33.2996 34.6875 33.0611 34.6875 32.8125V27.1875C34.6875 26.9389 34.5887 26.7004 34.4129 26.5246C34.2371 26.3488 33.9986 26.25 33.75 26.25H30.9375V6.5625H51.5625ZM30.9375 31.875V28.125H32.8125V31.875H30.9375Z" fill="#3B6B9C"/>
<path d="M37.5 51.5625H48.75C48.9986 51.5625 49.2371 51.4637 49.4129 51.2879C49.5887 51.1121 49.6875 50.8736 49.6875 50.625V9.375C49.6875 9.12636 49.5887 8.8879 49.4129 8.71209C49.2371 8.53627 48.9986 8.4375 48.75 8.4375H37.5C37.2514 8.4375 37.0129 8.53627 36.8371 8.71209C36.6613 8.8879 36.5625 9.12636 36.5625 9.375V50.625C36.5625 50.8736 36.6613 51.1121 36.8371 51.2879C37.0129 51.4637 37.2514 51.5625 37.5 51.5625ZM38.4375 10.3125H47.8125V49.6875H38.4375V10.3125Z" fill="#3B6B9C"/>
<path d="M13.125 28.125H22.5C22.7486 28.125 22.9871 28.0262 23.1629 27.8504C23.3387 27.6746 23.4375 27.4361 23.4375 27.1875V21.5625C23.4375 21.3139 23.3387 21.0754 23.1629 20.8996C22.9871 20.7238 22.7486 20.625 22.5 20.625H13.125C12.8764 20.625 12.6379 20.7238 12.4621 20.8996C12.2863 21.0754 12.1875 21.3139 12.1875 21.5625V27.1875C12.1875 27.4361 12.2863 27.6746 12.4621 27.8504C12.6379 28.0262 12.8764 28.125 13.125 28.125ZM14.0625 22.5H21.5625V26.25H14.0625V22.5Z" fill="#3B6B9C"/>
</g>
<defs>
<clipPath id="clip0_17_4172">
<rect width="60" height="60" fill="white"/>
</clipPath>
</defs>
</svg>
