<svg width="60" height="60" viewBox="0 0 60 60" fill="none" xmlns="http://www.w3.org/2000/svg">
<path d="M29.9087 29.5382C33.8374 27.2895 36.5218 23.1026 36.5218 18.2608C36.5218 11.0686 30.6704 5.2173 23.4782 5.2173C16.2861 5.2173 10.4347 11.0686 10.4347 18.2608C10.4347 23.1026 13.1191 27.2895 17.0478 29.5382C7.22091 32.1182 0 40.427 0 50.2747V53.4782C0 54.1982 0.584388 54.7826 1.30439 54.7826C2.02439 54.7826 2.60878 54.1982 2.60878 53.4782V50.2747C2.60865 39.8165 11.9713 31.3043 23.4782 31.3043C34.9852 31.3043 44.3478 39.8165 44.3478 50.2747V53.4782C44.3478 54.1982 44.9322 54.7826 45.6522 54.7826C46.3722 54.7826 46.9566 54.1982 46.9566 53.4782V50.2747C46.9565 40.427 39.7356 32.1157 29.9087 29.5382ZM13.0435 18.2608C13.0435 12.5061 17.7235 7.82608 23.4782 7.82608C29.233 7.82608 33.913 12.5061 33.913 18.2608C33.913 24.0155 29.233 28.6955 23.4782 28.6955C17.7235 28.6955 13.0435 24.0157 13.0435 18.2608Z" fill="#3B6B9C"/>
<path d="M47.4728 29.5722C50.3006 27.7018 52.1737 24.5035 52.1737 20.8696C52.1737 15.1148 47.4937 10.4348 41.739 10.4348C41.019 10.4348 40.4346 11.0192 40.4346 11.7392C40.4346 12.4592 41.019 13.0436 41.739 13.0436C46.0537 13.0436 49.565 16.555 49.565 20.8697C49.565 25.1844 46.0537 28.6958 41.739 28.6958C41.019 28.6958 40.4346 29.2802 40.4346 30.0002C40.4346 30.7202 41.0188 31.3043 41.7388 31.3043C50.371 31.3043 57.391 37.7921 57.391 45.7695V48.2607C57.391 48.9807 57.9754 49.5651 58.6954 49.5651C59.4154 49.5651 59.9998 48.9807 59.9998 48.2607V45.7695C59.9998 38.2304 54.7406 31.8261 47.4728 29.5722Z" fill="#3B6B9C"/>
</svg>
